<svg width="523" height="128" viewBox="0 0 523 128" fill="none" xmlns="http://www.w3.org/2000/svg">
<path d="M119.721 88.8374L127.851 68.996H129.94L138.07 88.8374H135.46L133.073 82.8701H124.793L122.406 88.8374H119.721ZM128.821 72.0543C127.926 74.5158 127.106 76.7536 126.285 78.7675L125.539 80.6323H132.103L131.357 78.7675C130.611 76.7536 129.716 74.5158 128.821 72.0543Z" fill="#55833B"/>
<path d="M140.905 88.8372V67.3549H143.218V88.8372H140.905Z" fill="#55833B"/>
<path d="M154.48 87.1965C155.226 87.1965 155.972 87.1219 156.569 87.0473C157.165 86.9727 157.837 86.749 158.434 86.5252V88.4646C157.911 88.6883 157.315 88.9121 156.569 89.0613C155.823 89.2105 155.002 89.2851 154.182 89.2851C153.137 89.2851 152.242 89.1359 151.347 88.9121C150.452 88.6883 149.706 88.2408 149.035 87.644C148.364 87.0473 147.916 86.3014 147.543 85.4063C147.17 84.5112 147.021 83.3923 147.021 82.0497C147.021 80.7816 147.17 79.6627 147.543 78.6931C147.916 77.7234 148.364 76.9775 148.96 76.3061C149.557 75.7094 150.228 75.1873 150.974 74.8889C151.72 74.5905 152.541 74.4413 153.361 74.4413C154.182 74.4413 154.853 74.5905 155.599 74.8143C156.27 75.1127 156.867 75.4856 157.389 76.0823C157.911 76.6791 158.284 77.3504 158.583 78.2455C158.881 79.1406 159.03 80.1849 159.03 81.453C159.03 81.6021 159.03 81.6767 159.03 81.7513C159.03 81.8259 159.03 82.0497 159.03 82.3481H149.259C149.259 83.2432 149.408 83.9891 149.632 84.6604C149.93 85.2571 150.303 85.7793 150.751 86.2268C151.198 86.6744 151.795 86.8981 152.392 87.0473C153.063 87.1219 153.809 87.1965 154.48 87.1965ZM153.287 76.3061C152.765 76.3061 152.242 76.3807 151.795 76.6045C151.347 76.8283 150.974 77.1266 150.601 77.425C150.228 77.798 150.005 78.1709 149.781 78.6931C149.557 79.1406 149.408 79.6627 149.408 80.2595H156.643C156.643 79.7373 156.569 79.2152 156.42 78.6931C156.27 78.2455 156.047 77.798 155.748 77.425C155.45 77.0521 155.151 76.7537 154.704 76.6045C154.331 76.4553 153.809 76.3061 153.287 76.3061Z" fill="#55833B"/>
<path d="M170.667 76.6042H170.518C169.995 76.6042 169.473 76.6788 168.877 76.7534C168.354 76.828 167.832 76.9772 167.385 77.2009C166.937 77.4247 166.49 77.6485 166.117 77.9468C165.744 78.2452 165.445 78.6182 165.222 78.9911V88.8372H162.909V74.7394H164.699L165.147 76.9772H165.222C165.445 76.6042 165.744 76.3058 166.042 75.9329C166.34 75.6345 166.713 75.3361 167.161 75.1124C167.608 74.8886 168.056 74.6648 168.504 74.5902C169.026 74.441 169.548 74.3665 170.07 74.3665C170.145 74.3665 170.294 74.3665 170.368 74.3665C170.443 74.3665 170.592 74.3665 170.667 74.3665V76.6042Z" fill="#55833B"/>
<path d="M180.588 88.8376C180.364 88.9122 180.066 88.9868 179.693 89.0614C179.32 89.136 178.798 89.136 178.201 89.2106C177.455 89.2106 176.784 89.136 176.262 88.9122C175.74 88.763 175.292 88.4646 174.919 88.0917C174.546 87.7187 174.322 87.3458 174.099 86.8236C173.949 86.3015 173.8 85.7793 173.8 85.1826V76.6046H171.115V74.6652H173.8V70.7864H176.113V74.6652H180.364V76.6046H176.113V84.8097C176.113 85.108 176.187 85.4064 176.262 85.7048C176.336 86.0031 176.486 86.2269 176.709 86.4507C176.933 86.6745 177.157 86.8236 177.455 86.8982C177.754 87.0474 178.127 87.0474 178.574 87.0474C178.873 87.0474 179.171 87.0474 179.544 86.9728C179.917 86.8982 180.215 86.8236 180.514 86.749V88.8376H180.588Z" fill="#55833B"/>
<path d="M182.676 80.3342H189.24V82.4973H182.676V80.3342Z" fill="#55833B"/>
<path d="M195.954 86.6743H206.173V88.8374H193.567V68.996H205.651V71.1592H196.029V77.5741H204.607V79.7372H196.029V86.6743H195.954Z" fill="#55833B"/>
<path d="M218.257 87.2704C218.033 87.4942 217.735 87.718 217.511 87.9418C217.212 88.1656 216.914 88.3893 216.541 88.5385C216.168 88.6877 215.721 88.8369 215.273 88.9861C214.825 89.1352 214.378 89.1352 213.856 89.1352C213.184 89.1352 212.513 89.0606 211.991 88.8369C211.394 88.6131 210.947 88.3147 210.499 87.9418C210.052 87.5688 209.753 87.0467 209.529 86.5245C209.306 85.9278 209.156 85.3311 209.156 84.5852C209.156 83.9138 209.306 83.2425 209.529 82.7204C209.753 82.1982 210.126 81.6761 210.574 81.3031C211.021 80.9302 211.543 80.6318 212.215 80.408C212.886 80.1843 213.557 80.1097 214.303 80.1097C215.049 80.1097 215.721 80.1842 216.317 80.3334C216.914 80.4826 217.511 80.6318 217.958 80.781H218.033V79.8113C218.033 79.4383 218.033 79.0654 217.958 78.767C217.884 78.4686 217.809 78.2449 217.735 77.9465C217.511 77.4989 217.063 77.0514 216.466 76.753C215.87 76.4547 215.124 76.3055 214.154 76.3055C213.408 76.3055 212.737 76.3801 212.14 76.5293C211.543 76.6784 210.872 76.8276 210.275 77.0514V75.112C210.499 74.9628 210.798 74.8882 211.096 74.8137C211.394 74.7391 211.767 74.5899 212.14 74.5153C212.513 74.4407 212.886 74.3661 213.259 74.3661C213.632 74.2915 214.08 74.2915 214.453 74.2915C215.87 74.2915 217.063 74.5153 217.958 75.0374C218.853 75.5596 219.525 76.2309 219.898 77.0514C220.047 77.3498 220.121 77.7227 220.196 78.0957C220.271 78.4686 220.271 78.9162 220.271 79.3637V88.7623H218.48L218.257 87.2704ZM218.107 82.6458C217.66 82.4966 217.212 82.422 216.616 82.2728C216.019 82.1236 215.422 82.1236 214.676 82.1236C213.707 82.1236 212.961 82.3474 212.364 82.7204C211.842 83.1679 211.543 83.7646 211.543 84.6597C211.543 85.1073 211.618 85.4802 211.767 85.7786C211.916 86.077 212.066 86.3753 212.364 86.5991C212.588 86.8229 212.886 86.9721 213.184 87.0467C213.483 87.1213 213.856 87.1959 214.229 87.1959C214.751 87.1959 215.198 87.1213 215.571 86.9721C216.019 86.8229 216.392 86.6737 216.69 86.45C216.989 86.2262 217.287 86.077 217.511 85.8532C217.735 85.6294 217.884 85.4802 218.033 85.4057V82.6458H218.107Z" fill="#55833B"/>
<path d="M232.652 76.6042H232.503C231.981 76.6042 231.459 76.6788 230.862 76.7534C230.34 76.828 229.818 76.9772 229.37 77.2009C228.923 77.4247 228.475 77.6485 228.102 77.9468C227.729 78.2452 227.431 78.6182 227.207 78.9911V88.8372H224.895V74.7394H226.685L227.133 76.9772H227.207C227.431 76.6042 227.729 76.3058 228.028 75.9329C228.326 75.6345 228.699 75.3361 229.146 75.1124C229.594 74.8886 230.042 74.6648 230.489 74.5902C231.011 74.441 231.533 74.3665 232.056 74.3665C232.13 74.3665 232.279 74.3665 232.354 74.3665C232.429 74.3665 232.578 74.3665 232.652 74.3665V76.6042Z" fill="#55833B"/>
<path d="M235.188 88.8372V67.3549H237.501V88.8372H235.188Z" fill="#55833B"/>
<path d="M240.336 74.7397H242.648L247.049 85.7792H247.124L251.599 74.7397H253.911L245.184 95.7745H242.872L245.855 88.6137L240.336 74.7397Z" fill="#55833B"/>
<path d="M264.28 74.2177C264.28 74.8145 264.429 75.262 264.653 75.635C264.877 76.0079 265.175 76.3063 265.623 76.6047C265.996 76.8284 266.518 77.0522 267.04 77.2014C267.562 77.3506 268.084 77.4998 268.681 77.6489C269.427 77.8727 270.173 78.0219 270.919 78.2457C271.664 78.4695 272.336 78.7678 272.933 79.2154C273.529 79.5883 273.977 80.1105 274.35 80.7818C274.723 81.4531 274.872 82.2736 274.872 83.2433C274.872 84.2876 274.648 85.1827 274.275 85.9286C273.902 86.6745 273.38 87.2713 272.634 87.7934C271.963 88.241 271.142 88.6139 270.173 88.8377C269.203 89.0615 268.233 89.2106 267.114 89.2106C266.592 89.2106 266.07 89.2106 265.548 89.136C265.026 89.0615 264.504 88.9869 263.982 88.9123C263.459 88.8377 263.012 88.6885 262.639 88.5393C262.266 88.3901 261.968 88.241 261.669 88.0918V85.854C262.042 86.0032 262.415 86.227 262.863 86.3762C263.31 86.5254 263.758 86.6745 264.28 86.7491C264.727 86.8237 265.25 86.8983 265.697 86.9729C266.219 87.0475 266.667 87.0475 267.04 87.0475C267.711 87.0475 268.382 86.9729 269.054 86.8983C269.65 86.7491 270.247 86.5999 270.695 86.3016C271.142 86.0032 271.515 85.6303 271.814 85.1827C272.112 84.7352 272.261 84.0638 272.261 83.3925C272.261 82.7958 272.112 82.2736 271.888 81.9007C271.664 81.5277 271.292 81.2293 270.919 80.931C270.546 80.6326 270.023 80.4834 269.501 80.3342C268.979 80.1851 268.382 80.0359 267.86 79.8867C267.114 79.7375 266.368 79.5137 265.623 79.29C264.877 79.0662 264.205 78.7678 263.683 78.3949C263.161 78.0219 262.639 77.4998 262.266 76.8284C261.893 76.2317 261.744 75.4112 261.744 74.4415C261.744 73.3972 261.893 72.5767 262.266 71.8308C262.639 71.0849 263.161 70.4882 263.758 70.0406C264.355 69.5931 265.1 69.2201 265.921 68.9963C266.741 68.7725 267.637 68.6234 268.532 68.6234C269.576 68.6234 270.546 68.698 271.515 68.9217C272.41 69.1455 273.305 69.3693 274.051 69.7422V71.98C273.231 71.607 272.41 71.3833 271.515 71.1595C270.62 70.9357 269.725 70.8611 268.681 70.7865C267.935 70.7865 267.264 70.8611 266.741 71.0103C266.219 71.1595 265.697 71.3832 265.324 71.6816C264.951 71.98 264.653 72.3529 264.504 72.8005C264.355 73.248 264.28 73.6956 264.28 74.2177Z" fill="#55833B"/>
<path d="M277.035 74.7397H279.347L283.748 85.7792H283.823L288.298 74.7397H290.61L281.883 95.7745H279.645L282.629 88.6137L277.035 74.7397Z" fill="#55833B"/>
<path d="M295.086 78.469C295.086 78.842 295.161 79.1403 295.31 79.4387C295.459 79.6625 295.683 79.8862 295.982 80.0354C296.28 80.1846 296.578 80.3338 296.951 80.4084C297.324 80.483 297.697 80.6322 298.07 80.7067C298.592 80.8559 299.114 80.9305 299.562 81.0797C300.009 81.2289 300.457 81.4527 300.905 81.751C301.278 82.0494 301.65 82.4224 301.874 82.9445C302.098 83.4666 302.247 84.0634 302.247 84.8839C302.247 85.6298 302.098 86.2265 301.8 86.7487C301.501 87.2708 301.128 87.7929 300.606 88.1659C300.084 88.5389 299.487 88.8372 298.816 88.9864C298.145 89.1356 297.324 89.2848 296.504 89.2848C295.982 89.2848 295.534 89.2848 295.086 89.2102C294.639 89.1356 294.266 89.061 293.968 88.9864C293.669 88.9118 293.371 88.8372 293.147 88.7626C292.923 88.688 292.699 88.6135 292.55 88.5389V86.5995C293.147 86.8233 293.744 87.047 294.266 87.1962C294.863 87.3454 295.459 87.42 296.131 87.42C296.653 87.42 297.175 87.3454 297.623 87.2708C298.07 87.1962 298.443 87.047 298.741 86.8233C299.04 86.5995 299.264 86.3757 299.487 86.0774C299.637 85.779 299.711 85.4806 299.711 85.033C299.711 84.6601 299.637 84.2871 299.487 84.0634C299.338 83.8396 299.114 83.6158 298.891 83.392C298.592 83.2429 298.294 83.0937 297.995 82.9445C297.623 82.8699 297.324 82.7207 296.877 82.6461C296.354 82.5715 295.907 82.4224 295.385 82.2732C294.863 82.124 294.415 81.9002 293.968 81.6764C293.52 81.3781 293.222 81.0797 292.923 80.5576C292.699 80.11 292.55 79.5133 292.55 78.7674C292.55 78.0214 292.699 77.3501 292.923 76.828C293.222 76.3058 293.52 75.8583 294.042 75.4853C294.49 75.1124 295.012 74.8886 295.609 74.6648C296.205 74.5156 296.877 74.3665 297.548 74.3665C298.294 74.3665 299.04 74.441 299.711 74.5902C300.382 74.7394 300.979 74.9632 301.501 75.187V77.1264C300.905 76.9026 300.308 76.6788 299.711 76.6042C299.114 76.455 298.518 76.3804 297.846 76.3804C297.324 76.3804 296.877 76.455 296.504 76.5296C296.131 76.6042 295.832 76.7534 295.609 76.9772C295.385 77.2009 295.161 77.4247 295.086 77.6485C295.161 77.8723 295.086 78.1706 295.086 78.469Z" fill="#55833B"/>
<path d="M313.137 88.8376C312.914 88.9122 312.615 88.9868 312.242 89.0614C311.869 89.136 311.347 89.136 310.751 89.2106C310.005 89.2106 309.333 89.136 308.811 88.9122C308.289 88.763 307.841 88.4646 307.468 88.0917C307.096 87.7187 306.872 87.3458 306.648 86.8236C306.499 86.3015 306.35 85.7793 306.35 85.1826V76.6046H303.664V74.6652H306.35V70.7864H308.662V74.6652H312.914V76.6046H308.737V84.8097C308.737 85.108 308.811 85.4064 308.886 85.7048C308.96 86.0031 309.109 86.2269 309.333 86.4507C309.557 86.6745 309.781 86.8236 310.079 86.8982C310.378 87.0474 310.75 87.0474 311.198 87.0474C311.496 87.0474 311.795 87.0474 312.168 86.9728C312.541 86.8982 312.839 86.8236 313.137 86.749V88.8376Z" fill="#55833B"/>
<path d="M322.983 87.1965C323.729 87.1965 324.475 87.1219 325.072 87.0473C325.669 86.8981 326.34 86.749 326.937 86.5252V88.4646C326.415 88.6883 325.818 88.9121 325.072 89.0613C324.326 89.2105 323.505 89.2851 322.685 89.2851C321.641 89.2851 320.746 89.1359 319.85 88.9121C318.955 88.6883 318.209 88.2408 317.538 87.644C316.867 87.0473 316.419 86.3014 316.046 85.4063C315.673 84.5112 315.524 83.3923 315.524 82.0497C315.524 80.7816 315.673 79.6627 316.046 78.6931C316.419 77.7234 316.867 76.9775 317.464 76.3061C318.06 75.7094 318.732 75.1873 319.478 74.8889C320.223 74.5905 321.044 74.4413 321.864 74.4413C322.685 74.4413 323.356 74.5905 324.102 74.8143C324.774 75.1127 325.37 75.4856 325.892 76.0823C326.415 76.6791 326.787 77.3504 327.086 78.2455C327.384 79.1406 327.533 80.1849 327.533 81.453C327.533 81.6021 327.533 81.6767 327.533 81.7513C327.533 81.8259 327.533 82.0497 327.533 82.3481H317.762C317.762 83.2432 317.911 83.9891 318.135 84.6604C318.433 85.2571 318.806 85.7793 319.254 86.2268C319.701 86.5998 320.298 86.8981 320.895 87.0473C321.566 87.1219 322.237 87.1965 322.983 87.1965ZM321.79 76.3061C321.268 76.3061 320.746 76.3807 320.298 76.6045C319.85 76.8283 319.478 77.1266 319.105 77.425C318.732 77.798 318.508 78.1709 318.284 78.6931C318.06 79.1406 317.911 79.6627 317.911 80.2595H325.146C325.146 79.7373 325.072 79.2152 324.923 78.6931C324.774 78.2455 324.55 77.798 324.251 77.425C323.953 77.0521 323.655 76.7537 323.207 76.6045C322.76 76.4553 322.312 76.3061 321.79 76.3061Z" fill="#55833B"/>
<path d="M342.973 88.8369H340.661V79.7367C340.661 79.14 340.586 78.6178 340.437 78.1703C340.288 77.7227 340.139 77.3498 339.84 77.126C339.542 76.9022 339.318 76.6784 338.945 76.5293C338.572 76.3801 338.199 76.3055 337.752 76.3055C336.931 76.3055 336.185 76.5293 335.514 76.9768C334.843 77.4244 334.246 78.0211 333.724 78.767V88.7623H331.411V74.6645H333.202L333.649 76.6038H333.724C333.947 76.3055 334.246 76.0071 334.544 75.7087C334.843 75.4104 335.216 75.1866 335.588 74.9628C335.961 74.739 336.334 74.5899 336.782 74.4407C337.229 74.2915 337.677 74.2915 338.274 74.2915C339.318 74.2915 340.213 74.5153 340.884 75.0374C341.556 75.5596 342.078 76.2309 342.526 77.126H342.6C343.197 76.2309 343.943 75.5596 344.763 75.0374C345.584 74.5153 346.479 74.2915 347.598 74.2915C348.12 74.2915 348.642 74.3661 349.164 74.5153C349.686 74.6645 350.208 74.8883 350.731 75.2612C351.178 75.6342 351.551 76.1563 351.924 76.8276C352.222 77.4989 352.372 78.3195 352.372 79.3637V88.8369H350.059V79.7367C350.059 79.14 349.985 78.6178 349.835 78.1703C349.686 77.7227 349.537 77.3498 349.239 77.126C348.94 76.9022 348.717 76.6784 348.344 76.5293C347.971 76.3801 347.598 76.3055 347.15 76.3055C346.33 76.3055 345.584 76.5293 344.912 76.9768C344.241 77.4244 343.644 78.0211 343.122 78.767V88.8369H342.973Z" fill="#55833B"/>
<path d="M375.272 81.8259C375.272 82.9448 375.122 83.9145 374.824 84.8842C374.526 85.7793 374.078 86.5998 373.481 87.1965C372.885 87.8678 372.213 88.3154 371.393 88.6883C370.572 89.0613 369.677 89.2105 368.633 89.2105C367.589 89.2105 366.619 89.0613 365.798 88.6883C364.978 88.3154 364.232 87.7932 363.71 87.1965C363.188 86.5998 362.666 85.7793 362.367 84.8842C362.069 83.9891 361.92 82.9448 361.92 81.8259C361.92 80.707 362.069 79.6627 362.367 78.7677C362.666 77.8726 363.113 77.052 363.71 76.4553C364.307 75.784 364.978 75.2618 365.798 74.9635C366.619 74.5905 367.514 74.4413 368.558 74.4413C369.603 74.4413 370.498 74.5905 371.393 74.9635C372.213 75.3364 372.959 75.8586 373.481 76.4553C374.078 77.1266 374.526 77.8726 374.824 78.7677C375.122 79.6627 375.272 80.707 375.272 81.8259ZM372.885 81.8259C372.885 80.9308 372.81 80.1849 372.586 79.5136C372.362 78.8422 372.064 78.2455 371.691 77.798C371.318 77.3504 370.871 76.9775 370.349 76.7537C369.826 76.5299 369.23 76.3807 368.633 76.3807C368.036 76.3807 367.439 76.5299 366.917 76.7537C366.395 76.9775 365.948 77.3504 365.575 77.798C365.202 78.2455 364.903 78.8422 364.68 79.5136C364.456 80.1849 364.381 80.9308 364.381 81.8259C364.381 82.721 364.456 83.4669 364.68 84.1383C364.903 84.8096 365.202 85.4063 365.575 85.8539C365.948 86.3014 366.395 86.6744 366.917 86.8981C367.439 87.1219 368.036 87.2711 368.633 87.2711C369.23 87.2711 369.826 87.1219 370.349 86.8981C370.871 86.6744 371.318 86.3014 371.691 85.8539C372.064 85.4063 372.362 84.8096 372.586 84.1383C372.81 83.3923 372.885 82.6464 372.885 81.8259Z" fill="#55833B"/>
<path d="M387.132 69.145C386.833 69.0704 386.535 69.0704 386.162 68.9958C385.789 68.9958 385.491 68.9213 385.267 68.9213C384.745 68.9213 384.297 68.9959 383.85 69.145C383.402 69.2942 383.104 69.4434 382.805 69.7418C382.507 70.0401 382.283 70.4131 382.134 70.8606C381.985 71.3082 381.91 71.9049 381.91 72.5017V74.6648H386.087V76.6042H381.91V88.7626H379.598V76.6042H377.136V74.6648H379.598V72.5017C379.598 71.4574 379.747 70.6369 379.971 69.891C380.269 69.2196 380.642 68.6229 381.09 68.1754C381.537 67.7278 382.134 67.4294 382.805 67.2056C383.477 66.9819 384.148 66.9073 384.894 66.9073C385.342 66.9073 385.789 66.9073 386.237 66.9819C386.61 67.0565 386.908 67.0565 387.132 67.1311V69.145Z" fill="#55833B"/>
<path d="M411.599 78.9167C411.599 80.4085 411.375 81.8258 410.928 83.0938C410.48 84.3619 409.883 85.4062 409.063 86.3759C408.242 87.271 407.273 88.0169 406.154 88.539C405.035 89.0612 403.767 89.2849 402.35 89.2849C400.932 89.2849 399.59 89.0612 398.471 88.539C397.352 88.0169 396.382 87.3456 395.562 86.3759C394.741 85.4808 394.144 84.3619 393.772 83.0938C393.324 81.8258 393.175 80.4831 393.175 78.9167C393.175 77.4249 393.399 76.0076 393.846 74.7396C394.294 73.4715 394.89 72.4272 395.711 71.4575C396.531 70.5624 397.501 69.8165 398.62 69.2944C399.739 68.7722 401.007 68.5485 402.424 68.5485C403.841 68.5485 405.184 68.7722 406.303 69.2944C407.422 69.8165 408.391 70.4878 409.212 71.4575C410.033 72.3526 410.629 73.4715 411.002 74.7396C411.375 76.0076 411.599 77.4249 411.599 78.9167ZM409.137 78.9167C409.137 77.574 408.988 76.3806 408.615 75.4109C408.242 74.3666 407.795 73.5461 407.198 72.8748C406.601 72.2034 405.855 71.6813 405.035 71.3083C404.214 70.9354 403.319 70.7862 402.35 70.7862C401.38 70.7862 400.485 70.9354 399.664 71.3083C398.844 71.6813 398.098 72.2034 397.501 72.8748C396.904 73.5461 396.382 74.4412 396.084 75.4109C395.711 76.4552 395.562 77.574 395.562 78.9167C395.562 80.2593 395.711 81.4528 396.084 82.4225C396.457 83.3922 396.904 84.2873 397.576 84.9586C398.172 85.6299 398.918 86.1521 399.739 86.525C400.559 86.898 401.454 87.0472 402.424 87.0472C403.394 87.0472 404.289 86.898 405.109 86.525C405.93 86.1521 406.676 85.6299 407.273 84.9586C407.869 84.2873 408.391 83.3922 408.69 82.4225C408.988 81.4528 409.137 80.2593 409.137 78.9167Z" fill="#55833B"/>
<path d="M421.294 89.2102C420.548 89.2102 419.877 89.1356 419.355 88.9864C418.833 88.8372 418.236 88.6134 417.788 88.3151C417.341 88.0167 416.968 87.7183 416.669 87.2708C416.371 86.8232 416.147 86.4503 415.923 85.9281C415.774 85.5552 415.7 85.1822 415.625 84.7347C415.551 84.2871 415.551 83.8396 415.551 83.3174V74.6648H417.863V83.3174C417.863 84.0633 417.937 84.7347 418.161 85.2568C418.385 85.8535 418.758 86.3011 419.28 86.6741C419.802 87.047 420.474 87.1962 421.294 87.1962C422.189 87.1962 422.861 86.9724 423.383 86.5995C423.905 86.2265 424.278 85.7044 424.502 85.1076C424.651 84.5855 424.725 83.9888 424.725 83.3174V74.6648H427.038V83.3174C427.038 83.765 427.038 84.2125 426.963 84.6601C426.888 85.1076 426.814 85.4806 426.739 85.7789C426.59 86.3011 426.292 86.7487 425.993 87.1216C425.695 87.4946 425.322 87.8675 424.874 88.1659C424.427 88.4643 423.905 88.688 423.308 88.8372C422.786 89.1356 422.04 89.2102 421.294 89.2102Z" fill="#55833B"/>
<path d="M438.899 88.8376C438.675 88.9122 438.377 88.9868 438.004 89.0614C437.631 89.136 437.109 89.136 436.512 89.2106C435.766 89.2106 435.095 89.136 434.573 88.9122C434.051 88.763 433.603 88.4646 433.23 88.0917C432.857 87.7187 432.633 87.3458 432.41 86.8236C432.261 86.3015 432.111 85.7793 432.111 85.1826V76.6046H429.426V74.6652H432.111V70.7864H434.424V74.6652H438.675V76.6046H434.424V84.8097C434.424 85.108 434.498 85.4064 434.573 85.7048C434.647 86.0031 434.797 86.2269 435.02 86.4507C435.244 86.6745 435.468 86.8236 435.766 86.8982C436.065 86.9728 436.438 87.0474 436.885 87.0474C437.184 87.0474 437.482 87.0474 437.855 86.9728C438.228 86.8982 438.526 86.8236 438.825 86.749V88.8376H438.899Z" fill="#55833B"/>
<path d="M454.712 81.5273C454.712 82.8699 454.563 83.9888 454.19 84.9585C453.817 85.9282 453.37 86.7487 452.773 87.3454C452.176 87.9421 451.505 88.4643 450.759 88.7626C450.013 89.061 449.192 89.2102 448.446 89.2102C447.85 89.2102 447.328 89.1356 446.88 88.9864C446.433 88.8372 446.06 88.6135 445.687 88.4643C445.388 88.2405 445.09 88.0167 444.941 87.793C444.717 87.5692 444.642 87.42 444.568 87.2708H444.493L443.971 88.8372H442.255V67.3549H444.568V76.0821H444.642C445.164 75.5599 445.761 75.1124 446.432 74.814C447.104 74.5157 447.85 74.3665 448.745 74.3665C449.118 74.3665 449.565 74.4411 450.013 74.5157C450.46 74.5903 450.908 74.7394 451.356 74.9632C451.803 75.187 452.251 75.4853 452.624 75.8583C453.071 76.2313 453.37 76.6788 453.743 77.2009C454.115 77.7231 454.339 78.3944 454.488 79.0657C454.563 79.7371 454.712 80.5576 454.712 81.5273ZM452.251 81.751C452.251 80.6322 452.101 79.7371 451.878 78.9912C451.579 78.3198 451.281 77.7231 450.833 77.3501C450.386 76.9772 450.013 76.6788 449.491 76.5296C448.969 76.3804 448.596 76.3059 448.074 76.3059C447.328 76.3059 446.656 76.455 446.06 76.7534C445.463 77.0518 444.866 77.4247 444.419 77.9469V85.3314C444.568 85.5552 444.717 85.7044 444.941 85.9282C445.164 86.1519 445.463 86.3757 445.761 86.5249C446.06 86.6741 446.432 86.8979 446.805 87.047C447.178 87.1962 447.626 87.2708 448.074 87.2708C448.745 87.2708 449.342 87.1216 449.864 86.8979C450.386 86.5995 450.833 86.2265 451.206 85.779C451.579 85.2568 451.803 84.7347 452.027 84.0634C452.251 83.3921 452.251 82.4969 452.251 81.751Z" fill="#55833B"/>
<path d="M466.051 76.6042H465.902C465.379 76.6042 464.857 76.6788 464.261 76.7534C463.738 76.828 463.216 76.9772 462.769 77.2009C462.321 77.4247 461.874 77.6485 461.501 77.9468C461.128 78.2452 460.829 78.6182 460.606 78.9911V88.8372H458.293V74.7394H460.083L460.531 76.9772H460.606C460.829 76.6042 461.128 76.3058 461.426 75.9329C461.724 75.6345 462.097 75.3361 462.545 75.1124C462.992 74.8886 463.44 74.6648 463.888 74.5902C464.41 74.441 464.932 74.3665 465.454 74.3665C465.529 74.3665 465.678 74.3665 465.752 74.3665C465.827 74.3665 465.976 74.3665 466.051 74.3665V76.6042Z" fill="#55833B"/>
<path d="M475.225 87.1965C475.971 87.1965 476.717 87.1219 477.314 87.0473C477.91 86.9727 478.582 86.749 479.178 86.5252V88.4646C478.656 88.6883 478.06 88.9121 477.314 89.0613C476.568 89.2105 475.747 89.2851 474.927 89.2851C473.882 89.2851 472.987 89.1359 472.092 88.9121C471.197 88.6883 470.451 88.2408 469.78 87.644C469.109 87.0473 468.661 86.3014 468.288 85.4063C467.915 84.5112 467.766 83.3923 467.766 82.0497C467.766 80.7816 467.915 79.6627 468.288 78.6931C468.661 77.7234 469.109 76.9775 469.705 76.3061C470.302 75.7094 470.973 75.1873 471.719 74.8889C472.465 74.5905 473.286 74.4413 474.106 74.4413C474.927 74.4413 475.598 74.5905 476.344 74.8143C477.015 75.1127 477.612 75.4856 478.134 76.0823C478.656 76.6791 479.029 77.3504 479.328 78.2455C479.626 79.1406 479.775 80.1849 479.775 81.453C479.775 81.6021 479.775 81.6767 479.775 81.7513C479.775 81.8259 479.775 82.0497 479.775 82.3481H470.004C470.004 83.2432 470.153 83.9891 470.377 84.6604C470.675 85.2571 471.048 85.7793 471.495 86.2268C471.943 86.5998 472.54 86.8981 473.136 87.0473C473.808 87.1219 474.479 87.1965 475.225 87.1965ZM473.957 76.3061C473.435 76.3061 472.913 76.3807 472.465 76.6045C472.018 76.8283 471.645 77.1266 471.272 77.425C470.899 77.798 470.675 78.1709 470.451 78.6931C470.227 79.1406 470.078 79.6627 470.078 80.2595H477.314C477.314 79.7373 477.239 79.2152 477.09 78.6931C476.941 78.1709 476.717 77.798 476.418 77.425C476.12 77.0521 475.822 76.7537 475.374 76.6045C475.001 76.4553 474.554 76.3061 473.957 76.3061Z" fill="#55833B"/>
<path d="M491.934 87.2704C491.71 87.4942 491.411 87.718 491.188 87.9418C490.889 88.1656 490.591 88.3893 490.218 88.5385C489.845 88.6877 489.398 88.8369 488.95 88.9861C488.502 89.1352 488.055 89.1352 487.533 89.1352C486.861 89.1352 486.19 89.0606 485.668 88.8369C485.146 88.6131 484.624 88.3147 484.176 87.9418C483.729 87.5688 483.43 87.0467 483.206 86.5245C482.983 85.9278 482.833 85.3311 482.833 84.5852C482.833 83.9138 482.983 83.2425 483.206 82.7204C483.43 82.1982 483.803 81.6761 484.251 81.3031C484.698 80.9302 485.22 80.6318 485.892 80.408C486.563 80.1843 487.234 80.1097 487.98 80.1097C488.726 80.1097 489.398 80.1842 489.994 80.3334C490.591 80.4826 491.188 80.6318 491.635 80.781H491.71V79.8113C491.71 79.4383 491.71 79.0654 491.635 78.767C491.561 78.4686 491.486 78.2449 491.412 77.9465C491.188 77.4989 490.74 77.0514 490.143 76.753C489.547 76.4547 488.801 76.3055 487.831 76.3055C487.085 76.3055 486.414 76.3801 485.817 76.5293C485.22 76.6784 484.549 76.8276 483.952 77.0514V75.112C484.176 74.9628 484.474 74.8882 484.773 74.8137C485.071 74.7391 485.444 74.5899 485.817 74.5153C486.19 74.4407 486.563 74.3661 486.936 74.3661C487.309 74.2915 487.757 74.2915 488.129 74.2915C489.547 74.2915 490.74 74.5153 491.635 75.0374C492.53 75.5596 493.202 76.2309 493.575 77.0514C493.724 77.3498 493.798 77.7227 493.873 78.0957C493.948 78.4686 493.948 78.9162 493.948 79.3637V88.7623H492.008L491.934 87.2704ZM491.784 82.6458C491.337 82.4966 490.889 82.422 490.293 82.2728C489.696 82.1982 489.099 82.1236 488.353 82.1236C487.384 82.1236 486.638 82.3474 486.041 82.7204C485.519 83.1679 485.22 83.7646 485.22 84.6597C485.22 85.1073 485.295 85.4802 485.444 85.7786C485.593 86.077 485.743 86.3753 486.041 86.5991C486.265 86.8229 486.563 86.9721 486.861 87.0467C487.16 87.1213 487.533 87.1959 487.906 87.1959C488.428 87.1959 488.875 87.1213 489.248 86.9721C489.696 86.8229 490.069 86.6737 490.367 86.45C490.666 86.2262 490.964 86.077 491.188 85.8532C491.411 85.6294 491.561 85.4802 491.71 85.4057V82.6458H491.784Z" fill="#55833B"/>
<path d="M507.672 74.7394H510.655L503.793 81.2289L510.655 88.8372H507.821L501.033 81.3035V88.8372H498.721V67.3549H501.033V81.0797L507.672 74.7394Z" fill="#55833B"/>
<path d="M514.982 78.469C514.982 78.842 515.057 79.1403 515.206 79.4387C515.355 79.6625 515.579 79.8862 515.878 80.0354C516.176 80.1846 516.474 80.3338 516.847 80.4084C517.22 80.483 517.593 80.6322 517.966 80.7067C518.488 80.8559 519.01 80.9305 519.458 81.0797C519.905 81.2289 520.353 81.4527 520.801 81.751C521.174 82.0494 521.546 82.4224 521.77 82.9445C521.994 83.4666 522.143 84.0634 522.143 84.8839C522.143 85.6298 521.994 86.2265 521.696 86.7487C521.397 87.2708 521.024 87.7929 520.502 88.1659C519.98 88.5389 519.383 88.8372 518.712 88.9864C518.041 89.1356 517.22 89.2848 516.4 89.2848C515.878 89.2848 515.43 89.2848 514.982 89.2102C514.535 89.1356 514.162 89.061 513.864 88.9864C513.565 88.9118 513.267 88.8372 513.043 88.7626C512.819 88.688 512.595 88.6135 512.446 88.5389V86.5995C513.043 86.8233 513.64 87.047 514.162 87.1962C514.759 87.3454 515.355 87.42 516.027 87.42C516.549 87.42 517.071 87.3454 517.519 87.2708C517.966 87.1962 518.339 87.047 518.637 86.8233C518.936 86.5995 519.16 86.3757 519.383 86.0774C519.533 85.779 519.607 85.4806 519.607 85.033C519.607 84.6601 519.533 84.2871 519.383 84.0634C519.234 83.8396 519.01 83.6158 518.787 83.392C518.488 83.2429 518.19 83.0937 517.892 82.9445C517.519 82.8699 517.22 82.7207 516.773 82.6461C516.25 82.5715 515.803 82.4224 515.281 82.2732C514.759 82.124 514.311 81.9002 513.864 81.6764C513.416 81.3781 513.118 81.0797 512.819 80.5576C512.595 80.11 512.446 79.5133 512.446 78.7674C512.446 78.0214 512.595 77.3501 512.819 76.828C513.118 76.3058 513.416 75.8583 513.938 75.4853C514.386 75.1124 514.908 74.8886 515.505 74.6648C516.101 74.5156 516.773 74.3665 517.444 74.3665C518.19 74.3665 518.936 74.441 519.607 74.5902C520.278 74.7394 520.875 74.9632 521.397 75.187V77.1264C520.801 76.9026 520.204 76.6788 519.607 76.6042C519.01 76.455 518.414 76.3804 517.742 76.3804C517.22 76.3804 516.773 76.455 516.4 76.5296C516.027 76.6042 515.728 76.7534 515.505 76.9772C515.281 77.2009 515.057 77.4247 514.982 77.6485C515.057 77.8723 514.982 78.1706 514.982 78.469Z" fill="#55833B"/>
<path d="M129.866 113.527C129.568 114.795 129.269 115.914 129.046 116.884L126.733 125.313H124.421L119.871 111.215H122.183L124.794 120.017C125.167 121.21 125.391 122.105 125.614 122.776H125.689C125.838 122.031 126.137 121.061 126.509 119.718L128.896 111.215H131.209L133.745 119.718C134.118 120.837 134.342 121.881 134.565 122.776H134.64C134.864 121.881 135.162 120.912 135.461 120.017L138.071 111.215H140.384L135.684 125.313H133.297L130.985 116.884C130.463 115.914 130.164 114.795 129.866 113.527Z" fill="#55833B"/>
<path d="M143.143 107.933V105.397H145.455V107.933H143.143ZM143.217 125.313V111.215H145.53V125.313H143.217Z" fill="#55833B"/>
<path d="M157.613 125.388C157.389 125.462 157.091 125.537 156.718 125.611C156.345 125.686 155.823 125.686 155.226 125.761C154.48 125.761 153.809 125.686 153.286 125.462C152.764 125.313 152.317 125.015 151.944 124.642C151.571 124.269 151.347 123.896 151.123 123.374C150.974 122.851 150.825 122.329 150.825 121.733V113.155H148.14V111.215H150.825V107.336H153.137V111.215H157.389V113.155H153.137V121.36C153.137 121.658 153.212 121.956 153.286 122.255C153.361 122.553 153.51 122.777 153.734 123.001C153.958 123.224 154.182 123.374 154.48 123.448C154.778 123.597 155.151 123.597 155.599 123.597C155.897 123.597 156.196 123.597 156.568 123.523C156.941 123.448 157.24 123.374 157.538 123.299V125.388H157.613Z" fill="#55833B"/>
<path d="M163.134 113.154C163.432 112.856 163.73 112.557 164.029 112.259C164.327 111.961 164.7 111.737 165.073 111.513C165.446 111.289 165.894 111.14 166.341 111.066C166.789 110.991 167.236 110.916 167.758 110.916C168.281 110.916 168.803 110.991 169.399 111.14C169.996 111.289 170.444 111.513 170.891 111.886C171.339 112.259 171.712 112.781 172.01 113.453C172.309 114.124 172.458 114.944 172.458 115.989V125.462H170.145V116.362C170.145 115.243 169.922 114.348 169.474 113.826C169.026 113.229 168.355 112.93 167.385 112.93C166.565 112.93 165.819 113.154 165.073 113.602C164.327 114.049 163.73 114.646 163.208 115.392V125.387H160.896V103.905H163.208V113.154H163.134Z" fill="#55833B"/>
<path d="M185.734 125.312H183.347V105.471H188.867C189.687 105.471 190.433 105.546 191.179 105.62C191.851 105.695 192.522 105.844 193.119 106.068C194.312 106.515 195.207 107.112 195.804 108.007C196.401 108.828 196.699 109.872 196.699 111.14C196.699 112.184 196.475 113.005 196.102 113.825C195.729 114.646 195.133 115.243 194.387 115.765C193.641 116.287 192.671 116.66 191.627 116.958C190.508 117.257 189.315 117.331 187.897 117.331C187.226 117.331 186.555 117.331 185.809 117.257V125.312H185.734ZM185.734 114.944C186.032 115.019 186.405 115.019 186.778 115.019C187.151 115.019 187.45 115.019 187.823 115.019C188.942 115.019 189.911 114.944 190.732 114.72C191.552 114.571 192.224 114.273 192.671 113.975C193.119 113.676 193.566 113.229 193.79 112.707C194.014 112.184 194.163 111.662 194.163 111.066C194.163 110.32 194.014 109.648 193.641 109.201C193.268 108.679 192.746 108.306 192.074 108.082C191.627 107.933 191.179 107.783 190.583 107.783C190.06 107.709 189.389 107.709 188.643 107.709H185.809V114.944H185.734Z" fill="#55833B"/>
<path d="M208.56 123.746C208.336 123.97 208.038 124.193 207.814 124.417C207.516 124.641 207.217 124.865 206.844 125.014C206.471 125.163 206.024 125.312 205.576 125.461C205.129 125.536 204.681 125.611 204.159 125.611C203.488 125.611 202.816 125.536 202.294 125.312C201.772 125.088 201.25 124.79 200.802 124.417C200.355 124.044 200.056 123.522 199.833 123C199.609 122.478 199.46 121.806 199.46 121.061C199.46 120.389 199.609 119.718 199.833 119.196C200.056 118.674 200.429 118.151 200.877 117.779C201.325 117.406 201.847 117.107 202.518 116.883C203.189 116.66 203.861 116.585 204.607 116.585C205.352 116.585 206.024 116.66 206.621 116.809C207.217 116.958 207.814 117.107 208.262 117.256H208.336V116.287C208.336 115.914 208.336 115.541 208.262 115.242C208.187 114.944 208.112 114.72 208.038 114.422C207.814 113.974 207.366 113.527 206.77 113.228C206.173 112.93 205.427 112.781 204.457 112.781C203.711 112.781 203.04 112.855 202.443 113.005C201.847 113.154 201.175 113.303 200.579 113.527V111.662C200.802 111.513 201.101 111.438 201.399 111.364C201.697 111.289 202.07 111.14 202.443 111.065C202.816 110.991 203.189 110.916 203.562 110.916C203.935 110.841 204.383 110.841 204.756 110.841C206.173 110.841 207.366 111.065 208.262 111.587C209.157 112.11 209.828 112.781 210.201 113.601C210.35 113.9 210.425 114.273 210.499 114.646C210.574 115.019 210.574 115.466 210.574 115.914V125.312H208.634L208.56 123.746ZM208.485 119.121C208.038 118.972 207.59 118.897 206.993 118.748C206.397 118.674 205.8 118.599 205.054 118.599C204.084 118.599 203.338 118.823 202.742 119.196C202.22 119.643 201.921 120.24 201.921 121.135C201.921 121.583 201.996 121.956 202.145 122.254C202.294 122.552 202.443 122.851 202.742 123.075C202.966 123.298 203.264 123.447 203.562 123.522C203.861 123.597 204.234 123.671 204.607 123.671C205.129 123.671 205.576 123.597 205.949 123.447C206.397 123.298 206.77 123.149 207.068 122.925C207.366 122.702 207.665 122.552 207.889 122.329C208.112 122.105 208.262 121.956 208.411 121.881V119.121H208.485Z" fill="#55833B"/>
<path d="M217.437 113.154C217.735 112.855 218.033 112.557 218.332 112.259C218.63 111.96 219.003 111.737 219.376 111.513C219.749 111.289 220.196 111.14 220.644 110.991C221.092 110.842 221.614 110.841 222.136 110.841C222.807 110.841 223.404 110.916 223.926 111.14C224.448 111.364 224.97 111.587 225.418 112.035C225.865 112.408 226.164 112.93 226.388 113.601C226.611 114.273 226.761 115.019 226.761 115.988V125.461H224.448V116.361C224.448 115.168 224.224 114.273 223.777 113.751C223.329 113.228 222.583 112.93 221.688 112.93C220.868 112.93 220.122 113.154 219.376 113.601C218.63 114.049 217.959 114.646 217.437 115.392V125.387H215.124V111.289H216.914L217.437 113.154Z" fill="#55833B"/>
<path d="M230.489 118.451C230.489 117.481 230.564 116.586 230.788 115.84C231.011 115.094 231.235 114.423 231.534 113.826C231.832 113.229 232.205 112.782 232.652 112.409C233.1 112.036 233.548 111.737 233.995 111.514C234.443 111.29 234.89 111.141 235.412 110.991C235.86 110.917 236.307 110.842 236.755 110.842C237.65 110.842 238.396 110.991 238.993 111.29C239.589 111.588 240.186 111.961 240.708 112.558H240.783V103.831H243.095V125.313H241.38L240.932 123.747H240.857C240.708 123.97 240.485 124.194 240.261 124.418C240.037 124.642 239.739 124.865 239.44 125.015C239.142 125.238 238.769 125.388 238.321 125.462C237.874 125.537 237.426 125.611 236.83 125.611C236.084 125.611 235.263 125.462 234.592 125.238C233.846 124.94 233.175 124.567 232.578 123.97C231.981 123.374 231.534 122.628 231.161 121.733C230.638 120.912 230.489 119.793 230.489 118.451ZM232.876 118.451C232.876 119.271 232.951 120.017 233.175 120.688C233.324 121.36 233.622 121.882 233.995 122.404C234.368 122.926 234.741 123.224 235.263 123.448C235.785 123.672 236.382 123.821 236.979 123.821C237.501 123.821 237.874 123.747 238.321 123.597C238.694 123.448 239.067 123.299 239.366 123.075C239.664 122.851 239.962 122.702 240.186 122.479C240.41 122.255 240.559 122.031 240.708 121.882V114.497C240.261 113.975 239.664 113.602 239.067 113.304C238.471 113.005 237.799 112.856 237.053 112.856C236.606 112.856 236.158 112.931 235.711 113.08C235.263 113.229 234.816 113.528 234.368 113.975C233.92 114.423 233.622 114.945 233.324 115.691C233.025 116.362 232.876 117.332 232.876 118.451Z" fill="#55833B"/>
<path d="M254.284 123.672C255.03 123.672 255.776 123.597 256.373 123.522C256.969 123.373 257.641 123.224 258.237 123V124.94C257.715 125.163 257.119 125.387 256.373 125.536C255.627 125.686 254.806 125.76 253.986 125.76C252.941 125.76 252.046 125.611 251.151 125.387C250.256 125.163 249.51 124.716 248.839 124.119C248.168 123.522 247.72 122.777 247.347 121.881C246.974 120.986 246.825 119.867 246.825 118.525C246.825 117.257 246.974 116.138 247.347 115.168C247.72 114.198 248.168 113.453 248.764 112.781C249.361 112.185 250.032 111.662 250.778 111.364C251.524 111.066 252.345 110.916 253.165 110.916C253.986 110.916 254.657 111.066 255.403 111.289C256.074 111.588 256.671 111.961 257.193 112.557C257.715 113.154 258.088 113.826 258.387 114.721C258.685 115.616 258.834 116.66 258.834 117.928C258.834 118.077 258.834 118.152 258.834 118.226C258.834 118.301 258.834 118.525 258.834 118.823H249.063C249.063 119.718 249.212 120.464 249.436 121.136C249.734 121.732 250.107 122.254 250.555 122.702C251.002 123.075 251.599 123.373 252.196 123.522C252.867 123.597 253.538 123.672 254.284 123.672ZM253.016 112.856C252.494 112.856 251.972 112.93 251.524 113.154C251.077 113.378 250.704 113.676 250.331 113.975C249.958 114.348 249.734 114.721 249.51 115.243C249.286 115.69 249.137 116.212 249.137 116.809H256.373C256.373 116.287 256.298 115.765 256.149 115.243C256 114.795 255.776 114.348 255.478 113.975C255.179 113.602 254.881 113.303 254.433 113.154C254.06 112.93 253.613 112.856 253.016 112.856Z" fill="#55833B"/>
<path d="M274.2 125.313H271.888V116.212C271.888 115.616 271.813 115.094 271.664 114.646C271.515 114.198 271.366 113.825 271.067 113.602C270.843 113.303 270.545 113.154 270.172 113.005C269.799 112.856 269.426 112.781 268.979 112.781C268.158 112.781 267.412 113.005 266.741 113.453C266.07 113.9 265.473 114.497 264.951 115.243V125.238H262.638V111.14H264.429L264.876 113.08H264.951C265.175 112.781 265.473 112.483 265.771 112.184C266.07 111.886 266.443 111.662 266.816 111.439C267.188 111.215 267.561 111.066 268.009 110.916C268.457 110.767 268.904 110.767 269.501 110.767C270.545 110.767 271.44 110.991 272.112 111.513C272.783 112.035 273.305 112.707 273.753 113.602H273.827C274.424 112.707 275.17 112.035 275.99 111.513C276.811 110.991 277.706 110.767 278.825 110.767C279.347 110.767 279.869 110.842 280.391 110.991C280.913 111.14 281.436 111.364 281.958 111.737C282.405 112.11 282.778 112.632 283.151 113.303C283.449 113.975 283.599 114.795 283.599 115.839V125.313H281.137V116.212C281.137 115.616 281.063 115.094 280.913 114.646C280.764 114.198 280.615 113.825 280.317 113.602C280.093 113.303 279.795 113.154 279.422 113.005C279.049 112.856 278.676 112.781 278.228 112.781C277.408 112.781 276.662 113.005 275.99 113.453C275.319 113.9 274.722 114.497 274.2 115.243V125.313Z" fill="#55833B"/>
<path d="M288 107.933V105.397H290.312V107.933H288ZM288.074 125.313V111.215H290.387V125.313H288.074Z" fill="#55833B"/>
<path d="M301.054 110.841C301.725 110.841 302.396 110.916 302.993 111.065C303.59 111.214 304.186 111.438 304.634 111.662V113.601C304.037 113.378 303.441 113.154 302.918 113.079C302.396 112.93 301.874 112.93 301.277 112.93C300.681 112.93 300.159 113.005 299.562 113.228C298.965 113.452 298.517 113.751 298.07 114.124C297.622 114.571 297.249 115.093 297.026 115.839C296.727 116.51 296.653 117.406 296.653 118.45C296.653 119.196 296.727 119.942 296.951 120.538C297.175 121.21 297.473 121.732 297.846 122.179C298.219 122.627 298.741 123 299.338 123.298C299.935 123.597 300.606 123.671 301.427 123.671C302.023 123.671 302.545 123.597 303.142 123.522C303.739 123.447 304.261 123.224 304.858 123V124.939C304.709 125.014 304.485 125.163 304.186 125.238C303.888 125.312 303.59 125.387 303.291 125.461C302.993 125.536 302.62 125.611 302.247 125.611C301.874 125.685 301.501 125.685 301.128 125.685C300.158 125.685 299.263 125.536 298.443 125.238C297.622 124.939 296.876 124.492 296.205 123.895C295.534 123.298 295.086 122.552 294.713 121.657C294.34 120.762 294.191 119.643 294.191 118.45C294.191 117.555 294.266 116.66 294.49 115.914C294.713 115.168 294.937 114.496 295.31 113.974C295.683 113.452 296.056 112.93 296.504 112.557C296.951 112.184 297.399 111.811 297.921 111.587C298.443 111.364 298.965 111.14 299.487 111.065C300.009 110.916 300.531 110.841 301.054 110.841Z" fill="#55833B"/>
<path d="M317.09 125.312H314.703V105.471H320.223C321.043 105.471 321.789 105.546 322.535 105.62C323.206 105.695 323.878 105.844 324.474 106.068C325.668 106.515 326.563 107.112 327.16 108.007C327.756 108.828 328.055 109.872 328.055 111.14C328.055 112.184 327.831 113.005 327.458 113.825C327.085 114.646 326.488 115.243 325.742 115.765C324.997 116.287 324.027 116.66 322.983 116.958C321.864 117.257 320.67 117.331 319.253 117.331C318.582 117.331 317.91 117.331 317.164 117.257V125.312H317.09ZM317.09 114.944C317.388 115.019 317.761 115.019 318.134 115.019C318.507 115.019 318.805 115.019 319.178 115.019C320.297 115.019 321.267 114.944 322.087 114.72C322.908 114.571 323.579 114.273 324.027 113.975C324.474 113.676 324.922 113.229 325.146 112.707C325.369 112.184 325.519 111.662 325.519 111.066C325.519 110.32 325.369 109.648 324.997 109.201C324.624 108.679 324.101 108.306 323.43 108.082C322.983 107.933 322.535 107.783 321.938 107.783C321.416 107.709 320.745 107.709 319.999 107.709H317.164V114.944H317.09Z" fill="#55833B"/>
<path d="M342.974 118.301C342.974 119.42 342.825 120.39 342.526 121.359C342.228 122.254 341.78 123.075 341.184 123.672C340.587 124.268 339.915 124.79 339.095 125.163C338.274 125.536 337.379 125.686 336.335 125.686C335.291 125.686 334.321 125.536 333.501 125.163C332.68 124.79 331.934 124.268 331.412 123.672C330.815 123 330.368 122.254 330.069 121.359C329.771 120.464 329.622 119.42 329.622 118.301C329.622 117.182 329.771 116.138 330.069 115.243C330.368 114.348 330.815 113.527 331.412 112.93C332.009 112.259 332.68 111.737 333.501 111.439C334.321 111.066 335.216 110.916 336.26 110.916C337.305 110.916 338.2 111.066 339.095 111.439C339.915 111.812 340.661 112.334 341.184 112.93C341.78 113.602 342.228 114.348 342.526 115.243C342.825 116.138 342.974 117.182 342.974 118.301ZM340.587 118.301C340.587 117.406 340.512 116.66 340.288 115.989C340.065 115.317 339.766 114.721 339.393 114.273C339.02 113.826 338.573 113.453 338.051 113.229C337.529 113.005 336.932 112.856 336.335 112.856C335.738 112.856 335.142 113.005 334.619 113.229C334.097 113.453 333.65 113.826 333.277 114.273C332.904 114.721 332.606 115.317 332.382 115.989C332.158 116.66 332.083 117.406 332.083 118.301C332.083 119.196 332.158 119.942 332.382 120.613C332.606 121.285 332.904 121.881 333.277 122.329C333.65 122.777 334.097 123.149 334.619 123.373C335.142 123.597 335.738 123.746 336.335 123.746C336.932 123.746 337.529 123.597 338.051 123.373C338.573 123.149 339.02 122.777 339.393 122.329C339.766 121.881 340.065 121.285 340.288 120.613C340.438 119.942 340.587 119.122 340.587 118.301Z" fill="#55833B"/>
<path d="M354.088 125.388C353.864 125.462 353.566 125.537 353.193 125.611C352.82 125.686 352.298 125.686 351.701 125.761C350.955 125.761 350.284 125.686 349.762 125.462C349.239 125.313 348.792 125.015 348.419 124.642C348.046 124.269 347.822 123.896 347.598 123.374C347.449 122.851 347.3 122.329 347.3 121.733V113.155H344.615V111.215H347.3V107.336H349.612V111.215H353.864V113.155H349.612V121.36C349.612 121.658 349.687 121.956 349.762 122.255C349.836 122.553 349.985 122.777 350.209 123.001C350.433 123.224 350.657 123.374 350.955 123.448C351.253 123.597 351.626 123.597 352.074 123.597C352.372 123.597 352.671 123.597 353.044 123.523C353.417 123.448 353.715 123.374 354.013 123.299V125.388H354.088Z" fill="#55833B"/>
<path d="M363.859 123.672C364.605 123.672 365.351 123.597 365.947 123.522C366.544 123.448 367.215 123.224 367.812 123V124.94C367.29 125.163 366.693 125.387 365.947 125.536C365.201 125.686 364.381 125.76 363.56 125.76C362.516 125.76 361.621 125.611 360.726 125.387C359.831 125.163 359.085 124.716 358.414 124.119C357.742 123.522 357.295 122.777 356.922 121.881C356.549 120.986 356.4 119.867 356.4 118.525C356.4 117.257 356.549 116.138 356.922 115.168C357.295 114.198 357.742 113.453 358.339 112.781C358.936 112.185 359.607 111.662 360.353 111.364C361.099 111.066 361.919 110.916 362.74 110.916C363.56 110.916 364.232 111.066 364.978 111.289C365.649 111.588 366.246 111.961 366.768 112.557C367.29 113.154 367.663 113.826 367.961 114.721C368.26 115.616 368.409 116.66 368.409 117.928C368.409 118.077 368.409 118.152 368.409 118.226C368.409 118.301 368.409 118.525 368.409 118.823H358.637C358.637 119.718 358.787 120.464 359.01 121.136C359.309 121.732 359.682 122.254 360.129 122.702C360.577 123.075 361.173 123.373 361.77 123.522C362.442 123.597 363.113 123.672 363.859 123.672ZM362.665 112.856C362.143 112.856 361.621 112.93 361.173 113.154C360.726 113.378 360.353 113.676 359.98 113.975C359.607 114.348 359.383 114.721 359.16 115.243C358.936 115.69 358.787 116.212 358.787 116.809H366.022C366.022 116.287 365.947 115.765 365.798 115.243C365.649 114.721 365.425 114.348 365.127 113.975C364.828 113.602 364.53 113.303 364.083 113.154C363.71 112.93 363.187 112.856 362.665 112.856Z" fill="#55833B"/>
<path d="M374.526 113.154C374.824 112.855 375.122 112.557 375.421 112.259C375.719 111.96 376.092 111.737 376.465 111.513C376.838 111.289 377.286 111.14 377.733 110.991C378.181 110.842 378.703 110.841 379.225 110.841C379.896 110.841 380.493 110.916 381.015 111.14C381.537 111.364 382.06 111.587 382.507 112.035C382.955 112.408 383.253 112.93 383.477 113.601C383.701 114.273 383.85 115.019 383.85 115.988V125.461H381.537V116.361C381.537 115.168 381.314 114.273 380.866 113.751C380.418 113.228 379.673 112.93 378.777 112.93C377.957 112.93 377.211 113.154 376.465 113.601C375.719 114.049 375.048 114.646 374.526 115.392V125.387H372.213V111.289H374.004L374.526 113.154Z" fill="#55833B"/>
<path d="M395.785 125.388C395.561 125.462 395.263 125.537 394.89 125.611C394.517 125.686 393.994 125.686 393.398 125.761C392.652 125.761 391.981 125.686 391.458 125.462C390.936 125.313 390.489 125.015 390.116 124.642C389.743 124.269 389.519 123.896 389.295 123.374C389.146 122.851 388.997 122.329 388.997 121.733V113.155H386.312V111.215H388.997V107.336H391.309V111.215H395.561V113.155H391.309V121.36C391.309 121.658 391.384 121.956 391.458 122.255C391.533 122.553 391.682 122.777 391.906 123.001C392.13 123.224 392.353 123.374 392.652 123.448C392.95 123.597 393.323 123.597 393.771 123.597C394.069 123.597 394.367 123.597 394.74 123.523C395.113 123.448 395.412 123.374 395.71 123.299V125.388H395.785Z" fill="#55833B"/>
<path d="M398.992 107.933V105.397H401.304V107.933H398.992ZM399.067 125.313V111.215H401.379V125.313H399.067Z" fill="#55833B"/>
<path d="M414.209 123.746C413.986 123.97 413.687 124.193 413.463 124.417C413.165 124.641 412.867 124.865 412.494 125.014C412.121 125.163 411.673 125.312 411.226 125.461C410.778 125.536 410.331 125.611 409.808 125.611C409.137 125.611 408.466 125.536 407.944 125.312C407.421 125.088 406.899 124.79 406.452 124.417C406.004 124.044 405.706 123.522 405.482 123C405.258 122.403 405.109 121.806 405.109 121.061C405.109 120.389 405.258 119.718 405.482 119.196C405.706 118.674 406.079 118.151 406.526 117.779C406.974 117.406 407.496 117.107 408.167 116.883C408.839 116.66 409.51 116.585 410.256 116.585C411.002 116.585 411.673 116.66 412.27 116.809C412.867 116.958 413.463 117.107 413.911 117.256H413.986V116.287C413.986 115.914 413.986 115.541 413.911 115.242C413.836 114.944 413.762 114.72 413.687 114.422C413.463 113.974 413.016 113.527 412.419 113.228C411.822 112.93 411.076 112.781 410.107 112.781C409.361 112.781 408.69 112.855 408.093 113.005C407.496 113.154 406.825 113.303 406.228 113.527V111.662C406.452 111.513 406.75 111.438 407.048 111.364C407.347 111.289 407.72 111.14 408.093 111.065C408.466 110.991 408.839 110.916 409.212 110.916C409.585 110.841 410.032 110.841 410.405 110.841C411.822 110.841 413.016 111.065 413.911 111.587C414.806 112.11 415.477 112.781 415.85 113.601C415.999 113.9 416.074 114.273 416.149 114.646C416.223 115.019 416.223 115.466 416.223 115.914V125.312H414.284L414.209 123.746ZM414.135 119.121C413.687 118.972 413.24 118.897 412.643 118.748C412.046 118.674 411.449 118.599 410.704 118.599C409.734 118.599 408.988 118.823 408.391 119.196C407.869 119.643 407.571 120.24 407.571 121.135C407.571 121.583 407.645 121.956 407.794 122.254C407.944 122.552 408.093 122.851 408.391 123.075C408.615 123.298 408.913 123.447 409.212 123.522C409.51 123.597 409.883 123.671 410.256 123.671C410.778 123.671 411.226 123.597 411.599 123.447C412.046 123.298 412.419 123.149 412.717 122.925C413.016 122.702 413.314 122.552 413.538 122.329C413.762 122.105 413.911 121.956 414.06 121.881V119.121H414.135Z" fill="#55833B"/>
<path d="M420.997 125.313V103.831H423.309V125.313H420.997Z" fill="#55833B"/>
<path d="M64.9725 10.4418C65.0471 10.5163 65.0471 10.5909 65.1217 10.6655C65.4946 11.2623 66.3897 13.127 66.4643 16.0361H68.7767C68.4037 14.8427 68.2545 13.0525 69.3734 11.2623C69.448 11.1131 69.5972 11.0385 69.6718 10.8893C69.8956 10.4417 70.0447 9.91961 69.9701 9.32288C69.7464 7.83104 68.4037 6.63757 66.9119 6.63757C65.4201 6.63757 64.3758 7.90563 64.5995 9.39746C64.5995 9.69583 64.7487 10.0688 64.9725 10.4418Z" fill="#55833B"/>
<path d="M66.6864 43.0384C55.2739 43.0384 45.95 52.3623 45.95 63.7748C45.95 75.1873 55.2739 84.5113 66.6864 84.5113C68.8496 84.5113 70.8636 84.2129 72.8029 83.6162C74.3694 79.8866 76.3833 76.8284 78.4719 73.5463C81.381 68.9962 84.3646 64.297 86.4532 57.4345C83.7679 49.0803 75.9358 43.0384 66.6864 43.0384ZM66.6864 74.8144C60.5699 74.8144 55.6469 69.8913 55.6469 63.7748C55.6469 57.6583 60.5699 52.7353 66.6864 52.7353C72.8029 52.7353 77.726 57.6583 77.726 63.7748C77.726 69.8913 72.7283 74.8144 66.6864 74.8144Z" fill="#55833B"/>
<path d="M66.6865 74.2177C72.4539 74.2177 77.1293 69.5423 77.1293 63.7749C77.1293 58.0075 72.4539 53.3321 66.6865 53.3321C60.9191 53.3321 56.2437 58.0075 56.2437 63.7749C56.2437 69.5423 60.9191 74.2177 66.6865 74.2177Z" fill="#55833B"/>
<path d="M31.2559 63.7748C31.2559 44.2318 47.1439 28.3438 66.6869 28.3438C73.9223 28.3438 80.7102 30.507 86.3045 34.3111C82.1274 23.9429 72.9526 19.542 72.3559 19.3182L65.8664 16.3345C65.6426 16.3345 65.3443 16.3345 65.1205 16.3345C62.4352 16.3345 59.7499 16.5583 57.2138 17.0059C56.2441 15.514 54.1555 11.6353 56.4679 7.15977C56.6171 6.936 56.7662 6.71222 56.9154 6.41386C57.2884 5.59335 57.363 4.69826 57.1392 3.72857C56.5425 1.26704 53.9318 -0.373981 51.3956 0.0735685C48.8595 0.446527 47.2931 2.75887 47.8898 5.2204C48.039 5.89172 48.3374 6.41387 48.7103 6.93601C48.7849 7.0106 48.8595 7.15978 49.0087 7.23437C49.8292 8.27865 52.2907 11.859 52.5145 17.9756C50.7243 18.4977 48.9341 19.0944 47.2185 19.7658C46.3234 18.8707 45.13 17.1551 45.5029 14.8427C45.5775 14.6935 45.5775 14.5444 45.5775 14.3952C45.6521 13.873 45.5029 13.3509 45.2045 12.8287C44.384 11.5607 42.6684 11.0385 41.3258 11.6353C39.9831 12.3066 39.5356 13.873 40.3561 15.1411C40.5799 15.514 40.8782 15.7378 41.1766 15.9616C41.2512 16.0362 41.3258 16.0362 41.4004 16.1108C41.9971 16.5583 43.7127 17.901 45.0554 20.7355C41.9971 22.1527 39.1626 23.8683 36.4773 25.8823C34.7617 25.0618 32.3002 23.1224 32.0764 18.8707C32.0764 18.5723 32.0764 18.2739 32.0764 17.9756C32.0018 17.0805 31.6289 16.26 30.9575 15.6632C29.2419 14.0968 26.3329 14.6189 24.3935 16.7075C22.4541 18.8707 22.3049 21.8543 24.0205 23.3462C24.4681 23.7191 24.9902 24.0175 25.5869 24.1667C25.7361 24.1667 25.8107 24.2413 25.9599 24.2413C27.0042 24.465 30.0624 25.4347 32.9715 28.8659C31.1067 30.5816 29.4657 32.4463 27.8993 34.3857C26.7804 33.8636 25.4378 32.9685 24.7664 31.1783C24.7664 31.0291 24.6918 30.8799 24.6172 30.7307C24.3935 30.2832 24.0205 29.8356 23.4984 29.5373C22.1557 28.7913 20.3655 29.1643 19.545 30.3578C18.6499 31.5512 19.0975 33.1177 20.3655 33.8636C20.7385 34.0874 21.1114 34.1619 21.4844 34.2365C21.559 34.2365 21.6336 34.2365 21.7082 34.2365C22.3795 34.3111 24.2443 34.6095 26.482 36.1013C24.9156 38.2645 23.573 40.5768 22.3795 42.9638C20.9623 42.9638 16.0392 42.6654 13.6523 37.8169C13.5777 37.5186 13.4285 37.2948 13.2793 37.071C12.8318 36.3251 12.1604 35.6538 11.1908 35.2808C8.87841 34.3111 6.04393 35.43 4.85046 37.7423C3.657 40.0547 4.62669 42.8892 6.93903 43.7843C7.53576 44.008 8.20709 44.3064 8.80382 44.3064C8.95301 44.3064 9.10219 44.0826 9.25137 44.0826C10.594 44.008 14.9949 44.0826 20.2163 47.5884C20.2909 47.663 20.2909 47.5885 20.3655 47.663C19.7688 49.3041 19.2467 50.9451 18.8737 52.6607C17.6802 52.8844 15.2933 53.1082 13.3539 51.2434C13.2793 51.0942 13.1301 51.0197 12.981 50.8705C12.608 50.4975 12.0859 50.2737 11.4891 50.2737C9.99729 50.1992 8.50545 51.2434 8.28168 52.7353C7.98331 54.2271 9.02759 55.4206 10.5194 55.5697C10.8924 55.5697 11.3399 55.5697 11.6383 55.4206C11.7129 55.4206 11.7875 55.346 11.8621 55.346C12.608 55.1222 14.9203 54.4509 18.2024 55.2714C17.7548 57.7329 17.531 60.1944 17.4565 62.7305C15.6663 63.4765 11.7129 64.5207 7.90872 61.6117C7.68494 61.3879 7.46117 61.2387 7.2374 61.0895C6.49148 60.5674 5.59638 60.3436 4.62669 60.4182C2.09058 60.5674 0.002007 62.8051 0.002007 65.3412C-0.0725846 67.8774 1.94139 69.8913 4.47751 69.6676C5.14883 69.593 5.74556 69.4438 6.3423 69.1454C6.49148 69.0708 6.56607 68.9962 6.71525 68.9217C7.83413 68.3249 11.7129 66.6093 17.6056 67.3552C17.7548 69.2946 17.9786 71.1594 18.3515 73.0242C17.531 73.6955 15.3679 75.2619 12.608 74.3668C12.4588 74.2922 12.3096 74.2176 12.1604 74.2176C11.6383 74.0685 11.1162 74.1431 10.5194 74.3668C9.10219 74.9636 8.28168 76.53 8.72923 78.0218C9.10219 79.4391 10.594 80.1104 12.0113 79.5882C12.3842 79.4391 12.6826 79.2153 12.981 78.9169C13.0555 78.8423 13.1301 78.7677 13.1301 78.7677C13.6523 78.2456 15.5917 76.6046 18.9483 75.8587C19.6942 78.7677 20.8877 81.2293 22.1557 83.9146C21.932 83.84 21.6336 84.2129 21.6336 84.2129C21.6336 84.2129 17.9786 89.4343 11.7875 88.0917C11.4891 88.0171 11.1908 87.9425 10.8924 87.8679C9.92269 87.7187 9.17678 87.8679 8.35627 88.3901C6.19312 89.5835 5.29801 92.4926 6.3423 94.8795C7.38658 97.1919 10.0719 98.1616 12.235 96.8935C12.8318 96.5952 13.2793 96.1476 13.7269 95.6255C13.8015 95.5509 13.8761 95.4017 13.9506 95.2525C14.7712 94.2082 17.6056 90.8516 23.6476 88.9868C23.9459 88.9122 24.2443 87.8679 24.4681 87.7933C25.2886 89.136 26.1837 90.7024 27.1534 90.7024H27.0788C27.0788 90.7024 25.9599 95.2525 22.2303 95.7001C22.0811 95.7001 21.9319 96.1476 21.7082 96.2222C21.186 96.2968 20.7385 96.8189 20.2909 97.2665C19.2467 98.3854 19.1721 100.325 20.1417 101.444C21.1114 102.562 22.7525 102.637 23.7967 101.518C24.0951 101.22 24.2443 100.921 24.3935 100.549C24.3935 100.474 24.4681 100.399 24.4681 100.325C24.7664 99.5788 25.8107 97.1173 28.869 94.9541C28.869 94.9541 28.869 94.9541 28.9436 94.9541C30.4354 96.7443 32.151 98.3854 33.8666 99.8772C33.8666 99.8772 33.8666 99.8772 33.8666 99.9518C33.8666 100.026 33.8666 100.101 33.792 100.176V100.25C33.792 100.325 33.7174 100.399 33.7174 100.474C33.7174 100.549 33.6428 100.623 33.6428 100.623C33.6428 100.698 33.5682 100.772 33.5682 100.847C33.5682 100.921 33.4937 100.996 33.4937 101.071C33.4937 101.145 33.4191 101.22 33.4191 101.294C33.3445 101.369 33.3445 101.518 33.2699 101.593C33.2699 101.667 33.1953 101.742 33.1953 101.742C33.1207 101.891 33.0461 101.966 33.0461 102.115C33.0461 102.19 32.9715 102.264 32.9715 102.264C32.8969 102.413 32.8223 102.562 32.7477 102.637C32.7477 102.712 32.6731 102.712 32.6731 102.786C32.5986 102.935 32.524 103.085 32.3748 103.234C32.3748 103.308 32.3002 103.308 32.3002 103.383C32.2256 103.532 32.0764 103.681 32.0018 103.831C31.9272 103.905 31.9272 103.905 31.9272 103.98C31.778 104.129 31.7035 104.278 31.5543 104.427C31.4797 104.502 31.4797 104.502 31.4051 104.576C31.2559 104.726 31.1067 104.875 30.9575 104.949C30.8829 105.024 30.8829 105.024 30.8084 105.099C30.6592 105.248 30.51 105.322 30.3608 105.472C30.2862 105.546 30.2116 105.546 30.2116 105.621C30.0624 105.77 29.9133 105.844 29.6895 105.919C29.6149 105.994 29.5403 105.994 29.4657 106.068C29.3165 106.143 29.0927 106.292 28.869 106.367C28.7944 106.441 28.7198 106.441 28.6452 106.516C28.4214 106.59 28.1976 106.665 27.9739 106.74C27.8993 106.74 27.8247 106.814 27.7501 106.814C27.4517 106.889 27.1534 107.038 26.7804 107.113C26.482 107.113 26.2583 107.187 25.9599 107.262C25.1394 107.486 24.3189 108.082 23.7967 108.828C22.3795 110.917 22.7525 113.9 24.6918 115.541C26.6312 117.182 29.1673 116.884 30.6592 114.796C31.0321 114.273 31.1813 113.677 31.1813 113.005C31.4797 112.856 31.4797 112.707 31.4797 112.558C31.7035 111.29 32.9715 106.963 37.5962 102.712C37.6708 102.712 37.7454 102.637 37.7454 102.637C39.2372 103.681 40.5053 104.278 42.0717 105.099C41.9225 105.173 42.0717 105.546 42.0717 105.546C42.0717 105.546 42.6684 109.574 39.5356 111.513C39.3864 111.588 39.2372 111.663 39.088 111.961C38.6405 112.259 38.3421 112.483 38.1929 113.08C37.7454 114.572 38.4913 116.064 39.8339 116.66C41.1766 117.257 42.6684 116.437 43.116 115.019C43.2652 114.646 43.2652 114.199 43.1906 113.826C43.1906 113.751 43.1906 113.677 43.1906 113.527C43.116 112.707 42.9668 110.022 44.757 106.74C44.757 106.665 44.8316 106.665 44.8316 106.59C47.6661 107.933 50.6497 108.903 53.708 109.649C54.0064 111.439 54.2301 115.765 50.3514 118.749C50.1276 118.898 49.9038 119.047 49.68 119.271C49.0087 119.868 48.5612 120.688 48.412 121.658C47.9644 124.119 49.68 126.656 52.1416 127.327C54.6031 127.998 56.8408 126.506 57.2884 124.045C57.4376 123.374 57.0646 122.777 57.0646 122.105C57.0646 121.956 57.1392 121.807 57.0646 121.733C56.7663 120.464 56.0203 116.213 58.2581 110.544C59.7499 110.768 60.9434 110.768 62.5098 110.842C62.286 111.141 62.5098 111.364 62.5098 111.364C62.5098 111.364 64.5984 114.572 62.5844 117.705C62.5098 117.854 62.3606 117.928 62.286 118.078C62.0623 118.525 61.9131 119.047 61.9877 119.644C62.2114 121.136 63.5541 122.329 65.0459 122.255C66.5378 122.18 67.582 120.987 67.3583 119.42C67.2837 119.047 67.1345 118.674 66.9853 118.301C66.9107 118.227 66.9107 118.152 66.8361 118.078C66.3886 117.406 65.1951 115.019 65.4189 111.215C65.4189 111.066 65.4189 110.917 65.4189 110.768C67.5074 110.693 69.596 110.544 71.61 110.245C69.8198 107.038 68.7009 103.308 68.8501 99.0567C68.8501 98.9821 68.8501 98.9075 68.8501 98.9075C67.955 98.9821 66.9853 98.9821 66.0156 98.9821C47.1439 99.2059 31.2559 83.3178 31.2559 63.7748Z" fill="#55833B"/>
<path d="M31.8528 63.7747C31.8528 82.9448 47.4424 98.609 66.6871 98.609C67.6568 98.609 68.5519 98.5344 69.5216 98.4598C69.8199 92.6417 70.9388 88.1662 72.5052 84.2874C70.6404 84.8096 68.701 85.1079 66.6871 85.1079C54.9016 85.1079 45.3539 75.5602 45.3539 63.7747C45.3539 51.9893 54.9016 42.4415 66.6871 42.4415C75.8618 42.4415 83.7686 48.2597 86.7522 56.4648C86.9014 55.9426 87.0506 55.4205 87.1998 54.8983C89.2137 46.917 88.5424 40.4276 86.7522 35.3553C81.0833 31.402 74.2208 29.015 66.7617 29.015C47.4424 28.9404 31.8528 44.5301 31.8528 63.7747Z" fill="#55833B"/>
<path d="M79.2189 16.6325C79.368 14.6185 80.0394 12.0078 82.6501 9.99383C82.8738 9.84464 82.8738 9.69547 83.1722 9.54628C83.7689 8.94955 84.5149 8.12904 84.664 7.23394C85.1862 4.77242 83.6198 2.16171 81.1582 1.49039C78.6967 0.74447 76.3098 2.16171 75.8622 4.62323C75.713 5.29456 75.7876 5.89129 75.9368 6.56262C75.9368 6.7118 76.0114 6.86099 76.086 6.93558C76.3098 8.05445 76.8319 11.5603 75.3401 16.1849C76.6081 16.2595 77.9508 16.4087 79.2189 16.6325Z" fill="#55833B"/>
<path d="M88.6914 19.5421C88.9898 19.6913 89.139 19.8405 89.4373 19.9897C89.8849 19.2438 90.4816 18.4233 91.4513 17.9011C91.6005 17.8265 91.7497 17.7519 91.8988 17.6774C92.3464 17.379 92.6448 16.9314 92.8685 16.4093C93.3907 14.9921 92.6448 13.2765 91.3021 12.6797C89.9595 12.083 88.393 12.6797 87.8709 14.1716C87.7217 14.5445 87.5725 14.9175 87.5725 15.2904C87.5725 15.365 87.7217 15.4396 87.7217 15.5142C87.7217 16.0363 87.7963 17.379 87.2742 19.0946C87.7217 19.1692 88.2439 19.3184 88.6914 19.5421Z" fill="#55833B"/>
<path d="M82.1284 121.061C79.6669 119.271 77.0562 117.033 74.8184 114.273C75.3406 116.063 75.5644 118.45 74.2963 120.986C74.1471 121.21 73.9979 121.807 73.9233 121.807C73.625 122.777 73.5504 123.448 73.7742 124.418C74.4455 126.805 77.0562 128.371 79.5923 127.923C82.1284 127.476 83.6203 125.089 82.9489 122.627C82.7997 122.031 82.5014 121.509 82.1284 121.061Z" fill="#55833B"/>
<path d="M91.2272 55.1965C86.3041 74.8887 74.3695 78.0962 73.6235 99.2802C73.0268 115.392 92.8682 123.895 92.8682 123.895C92.8682 123.895 85.782 117.854 85.6328 110.916C85.4836 103.979 89.9591 102.115 96.0756 102.488C102.192 102.861 107.488 102.338 107.19 97.49C106.891 92.6415 105.4 90.2546 107.339 88.7628C109.278 87.2709 107.414 85.257 108.234 84.6602C109.129 84.1381 108.905 82.87 108.309 80.5577C107.861 79.0659 109.726 79.2896 112.113 78.0962C115.022 76.6043 113.978 74.292 111.218 68.8468C108.458 63.4016 107.041 60.7909 108.682 56.9122C108.682 56.9122 110.173 54.749 110.099 52.1383C110.099 51.0194 109.8 48.6325 109.129 45.5742C107.264 38.0405 102.416 26.5534 90.4067 20.959C85.782 18.7958 80.6352 17.6769 75.4883 17.6024C75.5629 17.6769 98.0896 28.0452 91.2272 55.1965Z" fill="#4CC1E6"/>
<path d="M174.994 51.0946C177.381 52.5865 180.812 53.7799 184.467 53.7799C189.838 53.7799 193.045 50.9454 193.045 46.7683C193.045 42.9641 190.882 40.7264 185.362 38.6378C178.723 36.2509 174.546 32.8197 174.546 27.0761C174.546 20.7358 179.842 15.962 187.749 15.962C191.926 15.962 194.984 16.9317 196.775 17.9759L195.283 22.3023C193.94 21.5563 191.255 20.3629 187.525 20.3629C181.931 20.3629 179.842 23.7195 179.842 26.4794C179.842 30.2836 182.304 32.1484 187.973 34.3861C194.91 37.0714 198.416 40.428 198.416 46.3954C198.416 52.7356 193.716 58.1808 184.094 58.1808C180.141 58.1808 175.814 57.062 173.651 55.5701L174.994 51.0946Z" fill="#4CC1E6"/>
<path d="M240.561 36.6239C240.561 50.7217 231.983 58.1808 221.54 58.1808C210.725 58.1808 203.191 49.8266 203.191 37.4444C203.191 24.4654 211.247 15.962 222.212 15.962C233.326 15.962 240.561 24.54 240.561 36.6239ZM208.86 37.2952C208.86 46.0224 213.559 53.8545 221.913 53.8545C230.268 53.8545 235.042 46.1716 235.042 36.8476C235.042 28.7171 230.79 20.2137 221.988 20.2137C213.186 20.2883 208.86 28.3442 208.86 37.2952Z" fill="#4CC1E6"/>
<path d="M247.423 17.1551C249.959 16.7076 253.316 16.3346 257.567 16.3346C262.789 16.3346 266.593 17.5281 269.054 19.7658C271.292 21.7052 272.635 24.6889 272.635 28.3439C272.635 32.0735 271.516 34.9825 269.502 37.0711C266.742 40.0548 262.192 41.5466 256.971 41.5466C255.404 41.5466 253.912 41.472 252.719 41.1736V57.5838H247.423V17.1551ZM252.719 36.8473C253.838 37.1457 255.33 37.2949 257.12 37.2949C263.46 37.2949 267.339 34.2366 267.339 28.5677C267.339 23.1971 263.535 20.5863 257.717 20.5863C255.404 20.5863 253.614 20.7355 252.719 21.0339V36.8473Z" fill="#4CC1E6"/>
<path d="M124.72 57.8081L143.666 16.3352H169.624V20.8107H151.946L153.587 34.088H169.027V38.4889H154.258L156.123 53.3326H171.34V57.8081H151.498L149.634 43.1882H136.878L130.24 57.8081H124.72ZM149.037 38.8619L147.694 26.9272C147.47 24.9878 147.097 22.3025 146.948 20.214H146.724C145.979 22.1533 145.009 24.5403 144.114 26.778L138.743 38.9365H149.037V38.8619Z" fill="#4CC1E6"/>
</svg>
